# xmcd
#
# Track frame offsets:
#	150
#	9002
#	17800
#	31265
#	39947
#	53422
#	60305
#	69270
#	84722
#	93435
#	112575
#	130835
#	143005
#	150940
#	161092
#	181310
#	195252
#	205382
#	213192
#	227210
#	237785
#	245657
#	259640
#	268670
#	277112
#	285400
#
# Disc length: 4444 seconds
#
# Revision: 0
# Processed by: cddbd v1.5.2PL0 Copyright (c) Steve Scherf et al.
# Submitted via: EasyCDDAExtractor 16.0.1.1
#
DISCID=4b115a1a
DTITLE=Dick Curless - A Tombstone Every Mile [CD1]
DYEAR=1900
DGENRE=Country
TTITLE0=Coast Of Maine 1950
TTITLE1=Ida Dance (Instrumental) 1950
TTITLE2=Jelly Doughnuts 1950
TTITLE3=Fiddler's Dance (Instumental) 1950
TTITLE4=Cottage In The Pines 1965
TTITLE5=Cupid's Arrow (1) 1965
TTITLE6=Baby Darling 1996
TTITLE7=Naponee 1996
TTITLE8=Rock Mountain Queen 1996
TTITLE9=Streets Of Laredo (1) 1956
TTITLE10=Foggy Foggy Dew 1956
TTITLE11=China Nights (3) 1957
TTITLE12=Blues In My Mind (2) 1958
TTITLE13=Lovin' Dan-Sixty Minute Man 1965
TTITLE14=Blue Yodel #6 (Midnight Turning Blues) 1965
TTITLE15=Bright Lights And Blonde Haired Women (I'm Getting Tired) 1965
TTITLE16=Travelin' Man 1965
TTITLE17=I'm Ragged But I'm Right 1996
TTITLE18=St. James Infirmary 1965
TTITLE19=You Never Miss The Water (Till The Well Runs Dry) 1965
TTITLE20=Rosalita 1996
TTITLE21=Just A Closer Walk With Thee 1996
TTITLE22=Please Don't Pass Me By 1996
TTITLE23=Nine Pound Hammer (1) 1957
TTITLE24=Rock Mountain Queen (With Overdub) 1965
TTITLE25=Dick Curless/Al Hawkes On The First Event Release 1996
EXTD=
EXTT0=
EXTT1=
EXTT2=
EXTT3=
EXTT4=
EXTT5=
EXTT6=
EXTT7=
EXTT8=
EXTT9=
EXTT10=
EXTT11=
EXTT12=
EXTT13=
EXTT14=
EXTT15=
EXTT16=
EXTT17=
EXTT18=
EXTT19=
EXTT20=
EXTT21=
EXTT22=
EXTT23=
EXTT24=
EXTT25=
PLAYORDER=
